<?xml version="1.0" encoding="utf-8" standalone="no"?>
<!DOCTYPE svg PUBLIC "-//W3C//DTD SVG 1.1//EN"
  "http://www.w3.org/Graphics/SVG/1.1/DTD/svg11.dtd">
<!-- Created with matplotlib (http://matplotlib.org/) -->
<svg height="648pt" version="1.1" viewBox="0 0 1152 648" width="1152pt" xmlns="http://www.w3.org/2000/svg" xmlns:xlink="http://www.w3.org/1999/xlink">
 <defs>
  <style type="text/css">
*{stroke-linecap:butt;stroke-linejoin:round;}
  </style>
 </defs>
 <g id="figure_1">
  <g id="patch_1">
   <path d="M 0 648 
L 1152 648 
L 1152 0 
L 0 0 
z
" style="fill:#ffffff;"/>
  </g>
  <g id="axes_1">
   <g id="patch_2">
    <path d="M 115.2 518.4 
L 1036.8 518.4 
L 1036.8 32.4 
L 115.2 32.4 
z
" style="fill:#ffffff;"/>
   </g>
   <g id="PathCollection_1">
    <defs>
     <path d="M 0 3 
C 0.795609 3 1.55874 2.683901 2.12132 2.12132 
C 2.683901 1.55874 3 0.795609 3 0 
C 3 -0.795609 2.683901 -1.55874 2.12132 -2.12132 
C 1.55874 -2.683901 0.795609 -3 0 -3 
C -0.795609 -3 -1.55874 -2.683901 -2.12132 -2.12132 
C -2.683901 -1.55874 -3 -0.795609 -3 0 
C -3 0.795609 -2.683901 1.55874 -2.12132 2.12132 
C -1.55874 2.683901 -0.795609 3 0 3 
z
" id="m1c7eac670c" style="stroke:#ffffff;stroke-width:0.75;"/>
    </defs>
    <g clip-path="url(#p4b91ae7445)">
     <use style="fill:#1f77b4;stroke:#ffffff;stroke-width:0.75;" x="379.512193" xlink:href="#m1c7eac670c" y="308.471657"/>
     <use style="fill:#1f77b4;stroke:#ffffff;stroke-width:0.75;" x="280.499298" xlink:href="#m1c7eac670c" y="374.613463"/>
     <use style="fill:#1f77b4;stroke:#ffffff;stroke-width:0.75;" x="115.3355" xlink:href="#m1c7eac670c" y="506.897077"/>
     <use style="fill:#1f77b4;stroke:#ffffff;stroke-width:0.75;" x="115.491421" xlink:href="#m1c7eac670c" y="501.145616"/>
     <use style="fill:#1f77b4;stroke:#ffffff;stroke-width:0.75;" x="631.465062" xlink:href="#m1c7eac670c" y="170.436581"/>
     <use style="fill:#1f77b4;stroke:#ffffff;stroke-width:0.75;" x="250.587155" xlink:href="#m1c7eac670c" y="397.619309"/>
     <use style="fill:#1f77b4;stroke:#ffffff;stroke-width:0.75;" x="1023.64536" xlink:href="#m1c7eac670c" y="58.283083"/>
     <use style="fill:#1f77b4;stroke:#ffffff;stroke-width:0.75;" x="386.764512" xlink:href="#m1c7eac670c" y="285.465811"/>
     <use style="fill:#1f77b4;stroke:#ffffff;stroke-width:0.75;" x="484.018669" xlink:href="#m1c7eac670c" y="222.199735"/>
     <use style="fill:#1f77b4;stroke:#ffffff;stroke-width:0.75;" x="121.235695" xlink:href="#m1c7eac670c" y="489.642693"/>
     <use style="fill:#1f77b4;stroke:#ffffff;stroke-width:0.75;" x="615.61876" xlink:href="#m1c7eac670c" y="173.312312"/>
     <use style="fill:#1f77b4;stroke:#ffffff;stroke-width:0.75;" x="387.841296" xlink:href="#m1c7eac670c" y="273.962888"/>
     <use style="fill:#1f77b4;stroke:#ffffff;stroke-width:0.75;" x="419.239716" xlink:href="#m1c7eac670c" y="256.708503"/>
     <use style="fill:#1f77b4;stroke:#ffffff;stroke-width:0.75;" x="997.336079" xlink:href="#m1c7eac670c" y="64.034544"/>
     <use style="fill:#1f77b4;stroke:#ffffff;stroke-width:0.75;" x="904.02035" xlink:href="#m1c7eac670c" y="89.916121"/>
     <use style="fill:#1f77b4;stroke:#ffffff;stroke-width:0.75;" x="613.285076" xlink:href="#m1c7eac670c" y="176.188043"/>
     <use style="fill:#1f77b4;stroke:#ffffff;stroke-width:0.75;" x="125.216263" xlink:href="#m1c7eac670c" y="481.0155"/>
     <use style="fill:#1f77b4;stroke:#ffffff;stroke-width:0.75;" x="386.348062" xlink:href="#m1c7eac670c" y="288.341541"/>
     <use style="fill:#1f77b4;stroke:#ffffff;stroke-width:0.75;" x="387.064274" xlink:href="#m1c7eac670c" y="282.59008"/>
     <use style="fill:#1f77b4;stroke:#ffffff;stroke-width:0.75;" x="180.833548" xlink:href="#m1c7eac670c" y="435.003809"/>
     <use style="fill:#1f77b4;stroke:#ffffff;stroke-width:0.75;" x="652.831809" xlink:href="#m1c7eac670c" y="156.057928"/>
     <use style="fill:#1f77b4;stroke:#ffffff;stroke-width:0.75;" x="229.556926" xlink:href="#m1c7eac670c" y="406.246501"/>
     <use style="fill:#1f77b4;stroke:#ffffff;stroke-width:0.75;" x="427.785255" xlink:href="#m1c7eac670c" y="248.081311"/>
     <use style="fill:#1f77b4;stroke:#ffffff;stroke-width:0.75;" x="554.286615" xlink:href="#m1c7eac670c" y="193.442427"/>
     <use style="fill:#1f77b4;stroke:#ffffff;stroke-width:0.75;" x="337.474639" xlink:href="#m1c7eac670c" y="337.228964"/>
     <use style="fill:#1f77b4;stroke:#ffffff;stroke-width:0.75;" x="739.587346" xlink:href="#m1c7eac670c" y="130.176351"/>
     <use style="fill:#1f77b4;stroke:#ffffff;stroke-width:0.75;" x="181.900621" xlink:href="#m1c7eac670c" y="429.252347"/>
     <use style="fill:#1f77b4;stroke:#ffffff;stroke-width:0.75;" x="190.862847" xlink:href="#m1c7eac670c" y="423.500886"/>
     <use style="fill:#1f77b4;stroke:#ffffff;stroke-width:0.75;" x="244.185525" xlink:href="#m1c7eac670c" y="400.49504"/>
     <use style="fill:#1f77b4;stroke:#ffffff;stroke-width:0.75;" x="539.167842" xlink:href="#m1c7eac670c" y="199.193889"/>
     <use style="fill:#1f77b4;stroke:#ffffff;stroke-width:0.75;" x="779.46235" xlink:href="#m1c7eac670c" y="121.549159"/>
     <use style="fill:#1f77b4;stroke:#ffffff;stroke-width:0.75;" x="586.963797" xlink:href="#m1c7eac670c" y="181.939504"/>
     <use style="fill:#1f77b4;stroke:#ffffff;stroke-width:0.75;" x="181.101674" xlink:href="#m1c7eac670c" y="432.128078"/>
     <use style="fill:#1f77b4;stroke:#ffffff;stroke-width:0.75;" x="815.209399" xlink:href="#m1c7eac670c" y="118.673428"/>
     <use style="fill:#1f77b4;stroke:#ffffff;stroke-width:0.75;" x="871.955914" xlink:href="#m1c7eac670c" y="107.170505"/>
     <use style="fill:#1f77b4;stroke:#ffffff;stroke-width:0.75;" x="280.185495" xlink:href="#m1c7eac670c" y="377.489194"/>
     <use style="fill:#1f77b4;stroke:#ffffff;stroke-width:0.75;" x="396.163147" xlink:href="#m1c7eac670c" y="262.459965"/>
     <use style="fill:#1f77b4;stroke:#ffffff;stroke-width:0.75;" x="558.021266" xlink:href="#m1c7eac670c" y="190.566697"/>
     <use style="fill:#1f77b4;stroke:#ffffff;stroke-width:0.75;" x="890.043544" xlink:href="#m1c7eac670c" y="98.543313"/>
     <use style="fill:#1f77b4;stroke:#ffffff;stroke-width:0.75;" x="142.765842" xlink:href="#m1c7eac670c" y="466.636847"/>
     <use style="fill:#1f77b4;stroke:#ffffff;stroke-width:0.75;" x="710.400488" xlink:href="#m1c7eac670c" y="135.927813"/>
     <use style="fill:#1f77b4;stroke:#ffffff;stroke-width:0.75;" x="154.434504" xlink:href="#m1c7eac670c" y="452.258193"/>
     <use style="fill:#1f77b4;stroke:#ffffff;stroke-width:0.75;" x="141.688644" xlink:href="#m1c7eac670c" y="469.512578"/>
     <use style="fill:#1f77b4;stroke:#ffffff;stroke-width:0.75;" x="645.021241" xlink:href="#m1c7eac670c" y="167.560851"/>
     <use style="fill:#1f77b4;stroke:#ffffff;stroke-width:0.75;" x="855.512614" xlink:href="#m1c7eac670c" y="112.921967"/>
     <use style="fill:#1f77b4;stroke:#ffffff;stroke-width:0.75;" x="164.564734" xlink:href="#m1c7eac670c" y="443.631001"/>
     <use style="fill:#1f77b4;stroke:#ffffff;stroke-width:0.75;" x="170.807269" xlink:href="#m1c7eac670c" y="440.75527"/>
     <use style="fill:#1f77b4;stroke:#ffffff;stroke-width:0.75;" x="421.198543" xlink:href="#m1c7eac670c" y="253.832773"/>
     <use style="fill:#1f77b4;stroke:#ffffff;stroke-width:0.75;" x="354.195106" xlink:href="#m1c7eac670c" y="322.85031"/>
     <use style="fill:#1f77b4;stroke:#ffffff;stroke-width:0.75;" x="610.221032" xlink:href="#m1c7eac670c" y="179.063774"/>
     <use style="fill:#1f77b4;stroke:#ffffff;stroke-width:0.75;" x="349.939351" xlink:href="#m1c7eac670c" y="331.477502"/>
     <use style="fill:#1f77b4;stroke:#ffffff;stroke-width:0.75;" x="298.71916" xlink:href="#m1c7eac670c" y="368.862002"/>
     <use style="fill:#1f77b4;stroke:#ffffff;stroke-width:0.75;" x="388.158548" xlink:href="#m1c7eac670c" y="271.087157"/>
     <use style="fill:#1f77b4;stroke:#ffffff;stroke-width:0.75;" x="839.069313" xlink:href="#m1c7eac670c" y="115.797698"/>
     <use style="fill:#1f77b4;stroke:#ffffff;stroke-width:0.75;" x="352.487496" xlink:href="#m1c7eac670c" y="328.601772"/>
     <use style="fill:#1f77b4;stroke:#ffffff;stroke-width:0.75;" x="270.4343" xlink:href="#m1c7eac670c" y="383.240656"/>
     <use style="fill:#1f77b4;stroke:#ffffff;stroke-width:0.75;" x="388.699393" xlink:href="#m1c7eac670c" y="265.335696"/>
     <use style="fill:#1f77b4;stroke:#ffffff;stroke-width:0.75;" x="366.448491" xlink:href="#m1c7eac670c" y="314.223118"/>
     <use style="fill:#1f77b4;stroke:#ffffff;stroke-width:0.75;" x="324.246537" xlink:href="#m1c7eac670c" y="342.980425"/>
     <use style="fill:#1f77b4;stroke:#ffffff;stroke-width:0.75;" x="1036.8" xlink:href="#m1c7eac670c" y="55.407352"/>
     <use style="fill:#1f77b4;stroke:#ffffff;stroke-width:0.75;" x="163.852524" xlink:href="#m1c7eac670c" y="446.506732"/>
     <use style="fill:#1f77b4;stroke:#ffffff;stroke-width:0.75;" x="180.446816" xlink:href="#m1c7eac670c" y="437.87954"/>
     <use style="fill:#1f77b4;stroke:#ffffff;stroke-width:0.75;" x="507.076548" xlink:href="#m1c7eac670c" y="213.572542"/>
     <use style="fill:#1f77b4;stroke:#ffffff;stroke-width:0.75;" x="655.709386" xlink:href="#m1c7eac670c" y="153.182197"/>
     <use style="fill:#1f77b4;stroke:#ffffff;stroke-width:0.75;" x="504.879269" xlink:href="#m1c7eac670c" y="216.448273"/>
     <use style="fill:#1f77b4;stroke:#ffffff;stroke-width:0.75;" x="946.34472" xlink:href="#m1c7eac670c" y="75.537467"/>
     <use style="fill:#1f77b4;stroke:#ffffff;stroke-width:0.75;" x="386.2635" xlink:href="#m1c7eac670c" y="291.217272"/>
     <use style="fill:#1f77b4;stroke:#ffffff;stroke-width:0.75;" x="121.808955" xlink:href="#m1c7eac670c" y="486.766962"/>
     <use style="fill:#1f77b4;stroke:#ffffff;stroke-width:0.75;" x="117.204841" xlink:href="#m1c7eac670c" y="492.518423"/>
     <use style="fill:#1f77b4;stroke:#ffffff;stroke-width:0.75;" x="920.874733" xlink:href="#m1c7eac670c" y="84.16466"/>
     <use style="fill:#1f77b4;stroke:#ffffff;stroke-width:0.75;" x="210.30066" xlink:href="#m1c7eac670c" y="414.873694"/>
     <use style="fill:#1f77b4;stroke:#ffffff;stroke-width:0.75;" x="115.2" xlink:href="#m1c7eac670c" y="515.524269"/>
     <use style="fill:#1f77b4;stroke:#ffffff;stroke-width:0.75;" x="388.256308" xlink:href="#m1c7eac670c" y="268.211426"/>
     <use style="fill:#1f77b4;stroke:#ffffff;stroke-width:0.75;" x="260.921846" xlink:href="#m1c7eac670c" y="391.867848"/>
     <use style="fill:#1f77b4;stroke:#ffffff;stroke-width:0.75;" x="341.077677" xlink:href="#m1c7eac670c" y="334.353233"/>
     <use style="fill:#1f77b4;stroke:#ffffff;stroke-width:0.75;" x="657.353716" xlink:href="#m1c7eac670c" y="150.306466"/>
     <use style="fill:#1f77b4;stroke:#ffffff;stroke-width:0.75;" x="198.403152" xlink:href="#m1c7eac670c" y="417.749424"/>
     <use style="fill:#1f77b4;stroke:#ffffff;stroke-width:0.75;" x="353.469588" xlink:href="#m1c7eac670c" y="325.726041"/>
     <use style="fill:#1f77b4;stroke:#ffffff;stroke-width:0.75;" x="960.321525" xlink:href="#m1c7eac670c" y="66.910275"/>
     <use style="fill:#1f77b4;stroke:#ffffff;stroke-width:0.75;" x="301.577073" xlink:href="#m1c7eac670c" y="365.986271"/>
     <use style="fill:#1f77b4;stroke:#ffffff;stroke-width:0.75;" x="728.077036" xlink:href="#m1c7eac670c" y="133.052082"/>
     <use style="fill:#1f77b4;stroke:#ffffff;stroke-width:0.75;" x="451.099072" xlink:href="#m1c7eac670c" y="236.578388"/>
     <use style="fill:#1f77b4;stroke:#ffffff;stroke-width:0.75;" x="264.571159" xlink:href="#m1c7eac670c" y="388.992117"/>
     <use style="fill:#1f77b4;stroke:#ffffff;stroke-width:0.75;" x="448.373157" xlink:href="#m1c7eac670c" y="239.454119"/>
     <use style="fill:#1f77b4;stroke:#ffffff;stroke-width:0.75;" x="458.382888" xlink:href="#m1c7eac670c" y="227.951196"/>
     <use style="fill:#1f77b4;stroke:#ffffff;stroke-width:0.75;" x="128.520563" xlink:href="#m1c7eac670c" y="478.13977"/>
     <use style="fill:#1f77b4;stroke:#ffffff;stroke-width:0.75;" x="355.199327" xlink:href="#m1c7eac670c" y="317.098849"/>
     <use style="fill:#1f77b4;stroke:#ffffff;stroke-width:0.75;" x="649.954231" xlink:href="#m1c7eac670c" y="158.933659"/>
     <use style="fill:#1f77b4;stroke:#ffffff;stroke-width:0.75;" x="535.384817" xlink:href="#m1c7eac670c" y="204.94535"/>
     <use style="fill:#1f77b4;stroke:#ffffff;stroke-width:0.75;" x="658.998046" xlink:href="#m1c7eac670c" y="147.430736"/>
     <use style="fill:#1f77b4;stroke:#ffffff;stroke-width:0.75;" x="773.296112" xlink:href="#m1c7eac670c" y="124.42489"/>
     <use style="fill:#1f77b4;stroke:#ffffff;stroke-width:0.75;" x="115.733884" xlink:href="#m1c7eac670c" y="498.269885"/>
     <use style="fill:#1f77b4;stroke:#ffffff;stroke-width:0.75;" x="163.107651" xlink:href="#m1c7eac670c" y="449.382462"/>
     <use style="fill:#1f77b4;stroke:#ffffff;stroke-width:0.75;" x="375.710931" xlink:href="#m1c7eac670c" y="311.347387"/>
     <use style="fill:#1f77b4;stroke:#ffffff;stroke-width:0.75;" x="315.416504" xlink:href="#m1c7eac670c" y="351.607618"/>
     <use style="fill:#1f77b4;stroke:#ffffff;stroke-width:0.75;" x="115.344174" xlink:href="#m1c7eac670c" y="504.021346"/>
     <use style="fill:#1f77b4;stroke:#ffffff;stroke-width:0.75;" x="289.073142" xlink:href="#m1c7eac670c" y="371.737733"/>
     <use style="fill:#1f77b4;stroke:#ffffff;stroke-width:0.75;" x="683.269043" xlink:href="#m1c7eac670c" y="138.803543"/>
     <use style="fill:#1f77b4;stroke:#ffffff;stroke-width:0.75;" x="423.898546" xlink:href="#m1c7eac670c" y="250.957042"/>
     <use style="fill:#1f77b4;stroke:#ffffff;stroke-width:0.75;" x="577.735475" xlink:href="#m1c7eac670c" y="187.690966"/>
     <use style="fill:#1f77b4;stroke:#ffffff;stroke-width:0.75;" x="581.739632" xlink:href="#m1c7eac670c" y="184.815235"/>
     <use style="fill:#1f77b4;stroke:#ffffff;stroke-width:0.75;" x="765.896627" xlink:href="#m1c7eac670c" y="127.30062"/>
     <use style="fill:#1f77b4;stroke:#ffffff;stroke-width:0.75;" x="880.177564" xlink:href="#m1c7eac670c" y="104.294775"/>
     <use style="fill:#1f77b4;stroke:#ffffff;stroke-width:0.75;" x="442.414987" xlink:href="#m1c7eac670c" y="242.32985"/>
     <use style="fill:#1f77b4;stroke:#ffffff;stroke-width:0.75;" x="941.822812" xlink:href="#m1c7eac670c" y="81.288929"/>
     <use style="fill:#1f77b4;stroke:#ffffff;stroke-width:0.75;" x="492.680301" xlink:href="#m1c7eac670c" y="219.324004"/>
     <use style="fill:#1f77b4;stroke:#ffffff;stroke-width:0.75;" x="539.313581" xlink:href="#m1c7eac670c" y="196.318158"/>
     <use style="fill:#1f77b4;stroke:#ffffff;stroke-width:0.75;" x="244.162487" xlink:href="#m1c7eac670c" y="403.370771"/>
     <use style="fill:#1f77b4;stroke:#ffffff;stroke-width:0.75;" x="355.092579" xlink:href="#m1c7eac670c" y="319.97458"/>
     <use style="fill:#1f77b4;stroke:#ffffff;stroke-width:0.75;" x="885.521637" xlink:href="#m1c7eac670c" y="101.419044"/>
     <use style="fill:#1f77b4;stroke:#ffffff;stroke-width:0.75;" x="115.212937" xlink:href="#m1c7eac670c" y="512.648539"/>
     <use style="fill:#1f77b4;stroke:#ffffff;stroke-width:0.75;" x="387.667466" xlink:href="#m1c7eac670c" y="279.714349"/>
     <use style="fill:#1f77b4;stroke:#ffffff;stroke-width:0.75;" x="385.911083" xlink:href="#m1c7eac670c" y="296.968734"/>
     <use style="fill:#1f77b4;stroke:#ffffff;stroke-width:0.75;" x="434.775723" xlink:href="#m1c7eac670c" y="245.20558"/>
     <use style="fill:#1f77b4;stroke:#ffffff;stroke-width:0.75;" x="323.292597" xlink:href="#m1c7eac670c" y="345.856156"/>
     <use style="fill:#1f77b4;stroke:#ffffff;stroke-width:0.75;" x="211.241806" xlink:href="#m1c7eac670c" y="411.997963"/>
     <use style="fill:#1f77b4;stroke:#ffffff;stroke-width:0.75;" x="313.826161" xlink:href="#m1c7eac670c" y="354.483348"/>
     <use style="fill:#1f77b4;stroke:#ffffff;stroke-width:0.75;" x="943.467142" xlink:href="#m1c7eac670c" y="78.413198"/>
     <use style="fill:#1f77b4;stroke:#ffffff;stroke-width:0.75;" x="302.605802" xlink:href="#m1c7eac670c" y="363.11054"/>
     <use style="fill:#1f77b4;stroke:#ffffff;stroke-width:0.75;" x="256.269814" xlink:href="#m1c7eac670c" y="394.743579"/>
     <use style="fill:#1f77b4;stroke:#ffffff;stroke-width:0.75;" x="952.510957" xlink:href="#m1c7eac670c" y="72.661737"/>
     <use style="fill:#1f77b4;stroke:#ffffff;stroke-width:0.75;" x="136.157419" xlink:href="#m1c7eac670c" y="472.388308"/>
     <use style="fill:#1f77b4;stroke:#ffffff;stroke-width:0.75;" x="129.337294" xlink:href="#m1c7eac670c" y="475.264039"/>
     <use style="fill:#1f77b4;stroke:#ffffff;stroke-width:0.75;" x="227.390454" xlink:href="#m1c7eac670c" y="409.122232"/>
     <use style="fill:#1f77b4;stroke:#ffffff;stroke-width:0.75;" x="397.67006" xlink:href="#m1c7eac670c" y="259.584234"/>
     <use style="fill:#1f77b4;stroke:#ffffff;stroke-width:0.75;" x="383.370493" xlink:href="#m1c7eac670c" y="302.720195"/>
     <use style="fill:#1f77b4;stroke:#ffffff;stroke-width:0.75;" x="381.239339" xlink:href="#m1c7eac670c" y="305.595926"/>
     <use style="fill:#1f77b4;stroke:#ffffff;stroke-width:0.75;" x="865.378594" xlink:href="#m1c7eac670c" y="110.046236"/>
     <use style="fill:#1f77b4;stroke:#ffffff;stroke-width:0.75;" x="682.018667" xlink:href="#m1c7eac670c" y="141.679274"/>
     <use style="fill:#1f77b4;stroke:#ffffff;stroke-width:0.75;" x="536.144573" xlink:href="#m1c7eac670c" y="202.06962"/>
     <use style="fill:#1f77b4;stroke:#ffffff;stroke-width:0.75;" x="145.434785" xlink:href="#m1c7eac670c" y="460.885385"/>
     <use style="fill:#1f77b4;stroke:#ffffff;stroke-width:0.75;" x="1010.490719" xlink:href="#m1c7eac670c" y="61.158814"/>
     <use style="fill:#1f77b4;stroke:#ffffff;stroke-width:0.75;" x="325.217339" xlink:href="#m1c7eac670c" y="340.104695"/>
     <use style="fill:#1f77b4;stroke:#ffffff;stroke-width:0.75;" x="143.45676" xlink:href="#m1c7eac670c" y="463.761116"/>
     <use style="fill:#1f77b4;stroke:#ffffff;stroke-width:0.75;" x="276.866751" xlink:href="#m1c7eac670c" y="380.364925"/>
     <use style="fill:#1f77b4;stroke:#ffffff;stroke-width:0.75;" x="515.004655" xlink:href="#m1c7eac670c" y="210.696812"/>
     <use style="fill:#1f77b4;stroke:#ffffff;stroke-width:0.75;" x="385.938241" xlink:href="#m1c7eac670c" y="294.093003"/>
     <use style="fill:#1f77b4;stroke:#ffffff;stroke-width:0.75;" x="193.870687" xlink:href="#m1c7eac670c" y="420.625155"/>
     <use style="fill:#1f77b4;stroke:#ffffff;stroke-width:0.75;" x="901.553855" xlink:href="#m1c7eac670c" y="95.667582"/>
     <use style="fill:#1f77b4;stroke:#ffffff;stroke-width:0.75;" x="669.275109" xlink:href="#m1c7eac670c" y="144.555005"/>
     <use style="fill:#1f77b4;stroke:#ffffff;stroke-width:0.75;" x="270.42593" xlink:href="#m1c7eac670c" y="386.116386"/>
     <use style="fill:#1f77b4;stroke:#ffffff;stroke-width:0.75;" x="123.152443" xlink:href="#m1c7eac670c" y="483.891231"/>
     <use style="fill:#1f77b4;stroke:#ffffff;stroke-width:0.75;" x="307.3375" xlink:href="#m1c7eac670c" y="357.359079"/>
     <use style="fill:#1f77b4;stroke:#ffffff;stroke-width:0.75;" x="478.554231" xlink:href="#m1c7eac670c" y="225.075465"/>
     <use style="fill:#1f77b4;stroke:#ffffff;stroke-width:0.75;" x="149.556782" xlink:href="#m1c7eac670c" y="455.133924"/>
     <use style="fill:#1f77b4;stroke:#ffffff;stroke-width:0.75;" x="184.696662" xlink:href="#m1c7eac670c" y="426.376617"/>
     <use style="fill:#1f77b4;stroke:#ffffff;stroke-width:0.75;" x="452.912555" xlink:href="#m1c7eac670c" y="233.702658"/>
     <use style="fill:#1f77b4;stroke:#ffffff;stroke-width:0.75;" x="303.329755" xlink:href="#m1c7eac670c" y="360.23481"/>
     <use style="fill:#1f77b4;stroke:#ffffff;stroke-width:0.75;" x="385.624219" xlink:href="#m1c7eac670c" y="299.844464"/>
     <use style="fill:#1f77b4;stroke:#ffffff;stroke-width:0.75;" x="454.766485" xlink:href="#m1c7eac670c" y="230.826927"/>
     <use style="fill:#1f77b4;stroke:#ffffff;stroke-width:0.75;" x="955.799617" xlink:href="#m1c7eac670c" y="69.786006"/>
     <use style="fill:#1f77b4;stroke:#ffffff;stroke-width:0.75;" x="116.995165" xlink:href="#m1c7eac670c" y="495.394154"/>
     <use style="fill:#1f77b4;stroke:#ffffff;stroke-width:0.75;" x="315.471058" xlink:href="#m1c7eac670c" y="348.731887"/>
     <use style="fill:#1f77b4;stroke:#ffffff;stroke-width:0.75;" x="148.226873" xlink:href="#m1c7eac670c" y="458.009655"/>
     <use style="fill:#1f77b4;stroke:#ffffff;stroke-width:0.75;" x="526.529091" xlink:href="#m1c7eac670c" y="207.821081"/>
    </g>
   </g>
   <g id="matplotlib.axis_1">
    <g id="xtick_1">
     <g id="line2d_1">
      <defs>
       <path d="M 0 0 
L 0 3.5 
" id="m5741c69fac" style="stroke:#000000;stroke-width:0.8;"/>
      </defs>
      <g>
       <use style="stroke:#000000;stroke-width:0.8;" x="202.970517" xlink:href="#m5741c69fac" y="518.4"/>
      </g>
     </g>
     <g id="text_1">
      <!-- 2014 -->
      <defs>
       <path d="M 18.21875 8.296875 
L 51.703125 8.296875 
L 51.703125 0 
L 7.421875 0 
L 7.421875 8.296875 
Q 16.546875 17.921875 23.375 25.296875 
Q 30.21875 32.671875 32.8125 35.6875 
Q 37.703125 41.65625 39.40625 45.34375 
Q 41.109375 49.03125 41.109375 52.875 
Q 41.109375 58.984375 37.515625 62.453125 
Q 33.9375 65.921875 27.6875 65.921875 
Q 23.25 65.921875 18.359375 64.3125 
Q 13.484375 62.703125 8.015625 59.421875 
L 8.015625 69.390625 
Q 13.03125 71.78125 17.890625 73 
Q 22.75 74.21875 27.484375 74.21875 
Q 38.1875 74.21875 44.703125 68.53125 
Q 51.21875 62.84375 51.21875 53.609375 
Q 51.21875 48.921875 49.046875 44.234375 
Q 46.875 39.546875 42 33.890625 
Q 39.265625 30.71875 34.0625 25.09375 
Q 28.859375 19.484375 18.21875 8.296875 
z
" id="DejaVuSansMono-32"/>
       <path d="M 23.578125 36.625 
Q 23.578125 39.3125 25.453125 41.265625 
Q 27.34375 43.21875 29.984375 43.21875 
Q 32.71875 43.21875 34.671875 41.265625 
Q 36.625 39.3125 36.625 36.625 
Q 36.625 33.890625 34.6875 31.984375 
Q 32.765625 30.078125 29.984375 30.078125 
Q 27.25 30.078125 25.40625 31.9375 
Q 23.578125 33.796875 23.578125 36.625 
z
M 30.078125 66.40625 
Q 23.1875 66.40625 19.796875 58.984375 
Q 16.40625 51.5625 16.40625 36.375 
Q 16.40625 21.234375 19.796875 13.8125 
Q 23.1875 6.390625 30.078125 6.390625 
Q 37.015625 6.390625 40.40625 13.8125 
Q 43.796875 21.234375 43.796875 36.375 
Q 43.796875 51.5625 40.40625 58.984375 
Q 37.015625 66.40625 30.078125 66.40625 
z
M 30.078125 74.21875 
Q 41.75 74.21875 47.734375 64.640625 
Q 53.71875 55.078125 53.71875 36.375 
Q 53.71875 17.71875 47.734375 8.140625 
Q 41.75 -1.421875 30.078125 -1.421875 
Q 18.40625 -1.421875 12.453125 8.140625 
Q 6.5 17.71875 6.5 36.375 
Q 6.5 55.078125 12.453125 64.640625 
Q 18.40625 74.21875 30.078125 74.21875 
z
" id="DejaVuSansMono-30"/>
       <path d="M 13.1875 8.296875 
L 28.515625 8.296875 
L 28.515625 64.015625 
L 12.015625 60.296875 
L 12.015625 69.28125 
L 28.421875 72.90625 
L 38.28125 72.90625 
L 38.28125 8.296875 
L 53.421875 8.296875 
L 53.421875 0 
L 13.1875 0 
z
" id="DejaVuSansMono-31"/>
       <path d="M 35.890625 63.921875 
L 12.890625 25.390625 
L 35.890625 25.390625 
z
M 34.28125 72.90625 
L 45.703125 72.90625 
L 45.703125 25.390625 
L 55.421875 25.390625 
L 55.421875 17.390625 
L 45.703125 17.390625 
L 45.703125 0 
L 35.890625 0 
L 35.890625 17.390625 
L 4.984375 17.390625 
L 4.984375 26.703125 
z
" id="DejaVuSansMono-34"/>
      </defs>
      <g transform="translate(205.756454 549.48125)rotate(-90)scale(0.1 -0.1)">
       <use xlink:href="#DejaVuSansMono-32"/>
       <use x="60.205078" xlink:href="#DejaVuSansMono-30"/>
       <use x="120.410156" xlink:href="#DejaVuSansMono-31"/>
       <use x="180.615234" xlink:href="#DejaVuSansMono-34"/>
      </g>
     </g>
    </g>
    <g id="xtick_2">
     <g id="line2d_2">
      <g>
       <use style="stroke:#000000;stroke-width:0.8;" x="353.015632" xlink:href="#m5741c69fac" y="518.4"/>
      </g>
     </g>
     <g id="text_2">
      <!-- 2015 -->
      <defs>
       <path d="M 10.109375 72.90625 
L 47.015625 72.90625 
L 47.015625 64.59375 
L 19.09375 64.59375 
L 19.09375 46.6875 
Q 21.1875 47.46875 23.3125 47.828125 
Q 25.4375 48.1875 27.59375 48.1875 
Q 38.921875 48.1875 45.5625 41.5 
Q 52.203125 34.8125 52.203125 23.390625 
Q 52.203125 11.859375 45.234375 5.21875 
Q 38.28125 -1.421875 26.21875 -1.421875 
Q 20.40625 -1.421875 15.59375 -0.640625 
Q 10.796875 0.140625 6.984375 1.703125 
L 6.984375 11.71875 
Q 11.46875 9.28125 16.015625 8.078125 
Q 20.5625 6.890625 25.296875 6.890625 
Q 33.453125 6.890625 37.859375 11.1875 
Q 42.28125 15.484375 42.28125 23.390625 
Q 42.28125 31.203125 37.71875 35.546875 
Q 33.15625 39.890625 25 39.890625 
Q 21.046875 39.890625 17.28125 38.984375 
Q 13.53125 38.09375 10.109375 36.28125 
z
" id="DejaVuSansMono-35"/>
      </defs>
      <g transform="translate(355.80157 549.48125)rotate(-90)scale(0.1 -0.1)">
       <use xlink:href="#DejaVuSansMono-32"/>
       <use x="60.205078" xlink:href="#DejaVuSansMono-30"/>
       <use x="120.410156" xlink:href="#DejaVuSansMono-31"/>
       <use x="180.615234" xlink:href="#DejaVuSansMono-35"/>
      </g>
     </g>
    </g>
    <g id="xtick_3">
     <g id="line2d_3">
      <g>
       <use style="stroke:#000000;stroke-width:0.8;" x="503.060748" xlink:href="#m5741c69fac" y="518.4"/>
      </g>
     </g>
     <g id="text_3">
      <!-- 2016 -->
      <defs>
       <path d="M 48.390625 71.296875 
L 48.390625 62.203125 
Q 45.3125 64.015625 41.84375 64.96875 
Q 38.375 65.921875 34.625 65.921875 
Q 25.25 65.921875 20.40625 58.859375 
Q 15.578125 51.8125 15.578125 38.09375 
Q 17.921875 42.96875 22.0625 45.578125 
Q 26.21875 48.1875 31.59375 48.1875 
Q 42.140625 48.1875 47.921875 41.71875 
Q 53.71875 35.25 53.71875 23.390625 
Q 53.71875 11.578125 47.75 5.078125 
Q 41.796875 -1.421875 31 -1.421875 
Q 18.3125 -1.421875 12.40625 7.6875 
Q 6.5 16.796875 6.5 36.375 
Q 6.5 54.828125 13.59375 64.515625 
Q 20.703125 74.21875 34.1875 74.21875 
Q 37.796875 74.21875 41.40625 73.453125 
Q 45.015625 72.703125 48.390625 71.296875 
z
M 30.8125 40.484375 
Q 24.515625 40.484375 20.890625 35.9375 
Q 17.28125 31.390625 17.28125 23.390625 
Q 17.28125 15.375 20.890625 10.828125 
Q 24.515625 6.296875 30.8125 6.296875 
Q 37.359375 6.296875 40.671875 10.609375 
Q 44 14.9375 44 23.390625 
Q 44 31.890625 40.671875 36.1875 
Q 37.359375 40.484375 30.8125 40.484375 
z
" id="DejaVuSansMono-36"/>
      </defs>
      <g transform="translate(505.846685 549.48125)rotate(-90)scale(0.1 -0.1)">
       <use xlink:href="#DejaVuSansMono-32"/>
       <use x="60.205078" xlink:href="#DejaVuSansMono-30"/>
       <use x="120.410156" xlink:href="#DejaVuSansMono-31"/>
       <use x="180.615234" xlink:href="#DejaVuSansMono-36"/>
      </g>
     </g>
    </g>
    <g id="xtick_4">
     <g id="line2d_4">
      <g>
       <use style="stroke:#000000;stroke-width:0.8;" x="653.516946" xlink:href="#m5741c69fac" y="518.4"/>
      </g>
     </g>
     <g id="text_4">
      <!-- 2017 -->
      <defs>
       <path d="M 6.78125 72.90625 
L 52.6875 72.90625 
L 52.6875 68.703125 
L 26.609375 0 
L 16.3125 0 
L 41.703125 64.59375 
L 6.78125 64.59375 
z
" id="DejaVuSansMono-37"/>
      </defs>
      <g transform="translate(656.302884 549.48125)rotate(-90)scale(0.1 -0.1)">
       <use xlink:href="#DejaVuSansMono-32"/>
       <use x="60.205078" xlink:href="#DejaVuSansMono-30"/>
       <use x="120.410156" xlink:href="#DejaVuSansMono-31"/>
       <use x="180.615234" xlink:href="#DejaVuSansMono-37"/>
      </g>
     </g>
    </g>
    <g id="xtick_5">
     <g id="line2d_5">
      <g>
       <use style="stroke:#000000;stroke-width:0.8;" x="803.562062" xlink:href="#m5741c69fac" y="518.4"/>
      </g>
     </g>
     <g id="text_5">
      <!-- 2018 -->
      <defs>
       <path d="M 30.078125 34.625 
Q 23.484375 34.625 19.890625 30.9375 
Q 16.3125 27.25 16.3125 20.515625 
Q 16.3125 13.765625 19.9375 10.03125 
Q 23.578125 6.296875 30.078125 6.296875 
Q 36.71875 6.296875 40.296875 9.984375 
Q 43.890625 13.671875 43.890625 20.515625 
Q 43.890625 27.203125 40.25 30.90625 
Q 36.625 34.625 30.078125 34.625 
z
M 21.484375 38.71875 
Q 15.1875 40.328125 11.640625 44.71875 
Q 8.109375 49.125 8.109375 55.328125 
Q 8.109375 64.015625 14.015625 69.109375 
Q 19.921875 74.21875 30.078125 74.21875 
Q 40.28125 74.21875 46.1875 69.109375 
Q 52.09375 64.015625 52.09375 55.328125 
Q 52.09375 49.125 48.546875 44.71875 
Q 45.015625 40.328125 38.71875 38.71875 
Q 46.046875 37.109375 49.921875 32.21875 
Q 53.8125 27.34375 53.8125 19.578125 
Q 53.8125 9.71875 47.515625 4.140625 
Q 41.21875 -1.421875 30.078125 -1.421875 
Q 18.953125 -1.421875 12.671875 4.125 
Q 6.390625 9.671875 6.390625 19.484375 
Q 6.390625 27.296875 10.265625 32.203125 
Q 14.15625 37.109375 21.484375 38.71875 
z
M 17.921875 54.390625 
Q 17.921875 48.53125 21.046875 45.453125 
Q 24.171875 42.390625 30.078125 42.390625 
Q 36.03125 42.390625 39.15625 45.453125 
Q 42.28125 48.53125 42.28125 54.390625 
Q 42.28125 60.359375 39.171875 63.484375 
Q 36.078125 66.609375 30.078125 66.609375 
Q 24.171875 66.609375 21.046875 63.453125 
Q 17.921875 60.296875 17.921875 54.390625 
z
" id="DejaVuSansMono-38"/>
      </defs>
      <g transform="translate(806.347999 549.48125)rotate(-90)scale(0.1 -0.1)">
       <use xlink:href="#DejaVuSansMono-32"/>
       <use x="60.205078" xlink:href="#DejaVuSansMono-30"/>
       <use x="120.410156" xlink:href="#DejaVuSansMono-31"/>
       <use x="180.615234" xlink:href="#DejaVuSansMono-38"/>
      </g>
     </g>
    </g>
    <g id="xtick_6">
     <g id="line2d_6">
      <g>
       <use style="stroke:#000000;stroke-width:0.8;" x="953.607177" xlink:href="#m5741c69fac" y="518.4"/>
      </g>
     </g>
     <g id="text_6">
      <!-- 2019 -->
      <defs>
       <path d="M 29.109375 32.328125 
Q 35.40625 32.328125 38.984375 36.859375 
Q 42.578125 41.40625 42.578125 49.421875 
Q 42.578125 57.421875 38.984375 61.953125 
Q 35.40625 66.5 29.109375 66.5 
Q 22.5625 66.5 19.234375 62.171875 
Q 15.921875 57.859375 15.921875 49.421875 
Q 15.921875 40.921875 19.21875 36.625 
Q 22.515625 32.328125 29.109375 32.328125 
z
M 11.53125 1.515625 
L 11.53125 10.59375 
Q 14.59375 8.796875 18.0625 7.84375 
Q 21.53125 6.890625 25.296875 6.890625 
Q 34.671875 6.890625 39.46875 13.9375 
Q 44.28125 21 44.28125 34.71875 
Q 42 29.828125 37.84375 27.21875 
Q 33.6875 24.609375 28.328125 24.609375 
Q 17.78125 24.609375 11.984375 31.09375 
Q 6.203125 37.59375 6.203125 49.515625 
Q 6.203125 61.28125 12.125 67.75 
Q 18.0625 74.21875 28.90625 74.21875 
Q 41.609375 74.21875 47.515625 65.078125 
Q 53.421875 55.953125 53.421875 36.375 
Q 53.421875 17.96875 46.3125 8.265625 
Q 39.203125 -1.421875 25.6875 -1.421875 
Q 22.125 -1.421875 18.5 -0.65625 
Q 14.890625 0.09375 11.53125 1.515625 
z
" id="DejaVuSansMono-39"/>
      </defs>
      <g transform="translate(956.393115 549.48125)rotate(-90)scale(0.1 -0.1)">
       <use xlink:href="#DejaVuSansMono-32"/>
       <use x="60.205078" xlink:href="#DejaVuSansMono-30"/>
       <use x="120.410156" xlink:href="#DejaVuSansMono-31"/>
       <use x="180.615234" xlink:href="#DejaVuSansMono-39"/>
      </g>
     </g>
    </g>
    <g id="text_7">
     <!-- Date -->
     <defs>
      <path d="M 21.296875 8.109375 
Q 33.734375 8.109375 38.671875 14.234375 
Q 43.609375 20.359375 43.609375 36.375 
Q 43.609375 52.546875 38.703125 58.671875 
Q 33.796875 64.796875 21.296875 64.796875 
L 16.609375 64.796875 
L 16.609375 8.109375 
z
M 21.484375 72.90625 
Q 38.1875 72.90625 46.09375 64.015625 
Q 54 55.125 54 36.375 
Q 54 17.71875 46.09375 8.859375 
Q 38.1875 0 21.484375 0 
L 6.6875 0 
L 6.6875 72.90625 
z
" id="DejaVuSansMono-44"/>
      <path d="M 34.28125 27.484375 
L 31.296875 27.484375 
Q 23.4375 27.484375 19.453125 24.71875 
Q 15.484375 21.96875 15.484375 16.5 
Q 15.484375 11.578125 18.453125 8.84375 
Q 21.4375 6.109375 26.703125 6.109375 
Q 34.125 6.109375 38.375 11.25 
Q 42.625 16.40625 42.671875 25.484375 
L 42.671875 27.484375 
z
M 51.703125 31.203125 
L 51.703125 0 
L 42.671875 0 
L 42.671875 8.109375 
Q 39.796875 3.21875 35.421875 0.890625 
Q 31.0625 -1.421875 24.8125 -1.421875 
Q 16.453125 -1.421875 11.46875 3.296875 
Q 6.5 8.015625 6.5 15.921875 
Q 6.5 25.046875 12.625 29.78125 
Q 18.75 34.515625 30.609375 34.515625 
L 42.671875 34.515625 
L 42.671875 35.9375 
Q 42.625 42.484375 39.34375 45.4375 
Q 36.078125 48.390625 28.90625 48.390625 
Q 24.3125 48.390625 19.625 47.0625 
Q 14.9375 45.75 10.5 43.21875 
L 10.5 52.203125 
Q 15.484375 54.109375 20.046875 55.046875 
Q 24.609375 56 28.90625 56 
Q 35.6875 56 40.5 54 
Q 45.3125 52 48.296875 48 
Q 50.140625 45.5625 50.921875 41.96875 
Q 51.703125 38.375 51.703125 31.203125 
z
" id="DejaVuSansMono-61"/>
      <path d="M 29.984375 70.21875 
L 29.984375 54.6875 
L 50.390625 54.6875 
L 50.390625 47.703125 
L 29.984375 47.703125 
L 29.984375 18.015625 
Q 29.984375 11.96875 32.28125 9.5625 
Q 34.578125 7.171875 40.28125 7.171875 
L 50.390625 7.171875 
L 50.390625 0 
L 39.40625 0 
Q 29.296875 0 25.140625 4.046875 
Q 21 8.109375 21 18.015625 
L 21 47.703125 
L 6.390625 47.703125 
L 6.390625 54.6875 
L 21 54.6875 
L 21 70.21875 
z
" id="DejaVuSansMono-74"/>
      <path d="M 54.296875 29.59375 
L 54.296875 25.203125 
L 15.375 25.203125 
L 15.375 24.90625 
Q 15.375 15.96875 20.03125 11.078125 
Q 24.703125 6.203125 33.203125 6.203125 
Q 37.5 6.203125 42.1875 7.5625 
Q 46.875 8.9375 52.203125 11.71875 
L 52.203125 2.78125 
Q 47.078125 0.6875 42.3125 -0.359375 
Q 37.546875 -1.421875 33.109375 -1.421875 
Q 20.359375 -1.421875 13.171875 6.21875 
Q 6 13.875 6 27.296875 
Q 6 40.375 13.03125 48.1875 
Q 20.0625 56 31.78125 56 
Q 42.234375 56 48.265625 48.921875 
Q 54.296875 41.84375 54.296875 29.59375 
z
M 45.3125 32.234375 
Q 45.125 40.140625 41.578125 44.265625 
Q 38.03125 48.390625 31.390625 48.390625 
Q 24.90625 48.390625 20.703125 44.09375 
Q 16.5 39.796875 15.71875 32.171875 
z
" id="DejaVuSansMono-65"/>
     </defs>
     <g transform="translate(563.959375 561.132812)scale(0.1 -0.1)">
      <use xlink:href="#DejaVuSansMono-44"/>
      <use x="60.205078" xlink:href="#DejaVuSansMono-61"/>
      <use x="120.410156" xlink:href="#DejaVuSansMono-74"/>
      <use x="180.615234" xlink:href="#DejaVuSansMono-65"/>
     </g>
    </g>
   </g>
   <g id="matplotlib.axis_2">
    <g id="ytick_1">
     <g id="line2d_7">
      <defs>
       <path d="M 0 0 
L -3.5 0 
" id="med18b988d8" style="stroke:#000000;stroke-width:0.8;"/>
      </defs>
      <g>
       <use style="stroke:#000000;stroke-width:0.8;" x="115.2" xlink:href="#med18b988d8" y="518.4"/>
      </g>
     </g>
     <g id="text_8">
      <!-- 0 -->
      <g transform="translate(102.179688 522.225781)scale(0.1 -0.1)">
       <use xlink:href="#DejaVuSansMono-30"/>
      </g>
     </g>
    </g>
    <g id="ytick_2">
     <g id="line2d_8">
      <g>
       <use style="stroke:#000000;stroke-width:0.8;" x="115.2" xlink:href="#med18b988d8" y="460.885385"/>
      </g>
     </g>
     <g id="text_9">
      <!-- 20 -->
      <g transform="translate(96.159375 464.711167)scale(0.1 -0.1)">
       <use xlink:href="#DejaVuSansMono-32"/>
       <use x="60.205078" xlink:href="#DejaVuSansMono-30"/>
      </g>
     </g>
    </g>
    <g id="ytick_3">
     <g id="line2d_9">
      <g>
       <use style="stroke:#000000;stroke-width:0.8;" x="115.2" xlink:href="#med18b988d8" y="403.370771"/>
      </g>
     </g>
     <g id="text_10">
      <!-- 40 -->
      <g transform="translate(96.159375 407.196552)scale(0.1 -0.1)">
       <use xlink:href="#DejaVuSansMono-34"/>
       <use x="60.205078" xlink:href="#DejaVuSansMono-30"/>
      </g>
     </g>
    </g>
    <g id="ytick_4">
     <g id="line2d_10">
      <g>
       <use style="stroke:#000000;stroke-width:0.8;" x="115.2" xlink:href="#med18b988d8" y="345.856156"/>
      </g>
     </g>
     <g id="text_11">
      <!-- 60 -->
      <g transform="translate(96.159375 349.681937)scale(0.1 -0.1)">
       <use xlink:href="#DejaVuSansMono-36"/>
       <use x="60.205078" xlink:href="#DejaVuSansMono-30"/>
      </g>
     </g>
    </g>
    <g id="ytick_5">
     <g id="line2d_11">
      <g>
       <use style="stroke:#000000;stroke-width:0.8;" x="115.2" xlink:href="#med18b988d8" y="288.341541"/>
      </g>
     </g>
     <g id="text_12">
      <!-- 80 -->
      <g transform="translate(96.159375 292.167323)scale(0.1 -0.1)">
       <use xlink:href="#DejaVuSansMono-38"/>
       <use x="60.205078" xlink:href="#DejaVuSansMono-30"/>
      </g>
     </g>
    </g>
    <g id="ytick_6">
     <g id="line2d_12">
      <g>
       <use style="stroke:#000000;stroke-width:0.8;" x="115.2" xlink:href="#med18b988d8" y="230.826927"/>
      </g>
     </g>
     <g id="text_13">
      <!-- 100 -->
      <g transform="translate(90.139062 234.652708)scale(0.1 -0.1)">
       <use xlink:href="#DejaVuSansMono-31"/>
       <use x="60.205078" xlink:href="#DejaVuSansMono-30"/>
       <use x="120.410156" xlink:href="#DejaVuSansMono-30"/>
      </g>
     </g>
    </g>
    <g id="ytick_7">
     <g id="line2d_13">
      <g>
       <use style="stroke:#000000;stroke-width:0.8;" x="115.2" xlink:href="#med18b988d8" y="173.312312"/>
      </g>
     </g>
     <g id="text_14">
      <!-- 120 -->
      <g transform="translate(90.139062 177.138093)scale(0.1 -0.1)">
       <use xlink:href="#DejaVuSansMono-31"/>
       <use x="60.205078" xlink:href="#DejaVuSansMono-32"/>
       <use x="120.410156" xlink:href="#DejaVuSansMono-30"/>
      </g>
     </g>
    </g>
    <g id="ytick_8">
     <g id="line2d_14">
      <g>
       <use style="stroke:#000000;stroke-width:0.8;" x="115.2" xlink:href="#med18b988d8" y="115.797698"/>
      </g>
     </g>
     <g id="text_15">
      <!-- 140 -->
      <g transform="translate(90.139062 119.623479)scale(0.1 -0.1)">
       <use xlink:href="#DejaVuSansMono-31"/>
       <use x="60.205078" xlink:href="#DejaVuSansMono-34"/>
       <use x="120.410156" xlink:href="#DejaVuSansMono-30"/>
      </g>
     </g>
    </g>
    <g id="ytick_9">
     <g id="line2d_15">
      <g>
       <use style="stroke:#000000;stroke-width:0.8;" x="115.2" xlink:href="#med18b988d8" y="58.283083"/>
      </g>
     </g>
     <g id="text_16">
      <!-- 160 -->
      <g transform="translate(90.139062 62.108864)scale(0.1 -0.1)">
       <use xlink:href="#DejaVuSansMono-31"/>
       <use x="60.205078" xlink:href="#DejaVuSansMono-36"/>
       <use x="120.410156" xlink:href="#DejaVuSansMono-30"/>
      </g>
     </g>
    </g>
    <g id="text_17">
     <!-- System Count -->
     <defs>
      <path d="M 49.421875 70.40625 
L 49.421875 60.40625 
Q 44.921875 63.28125 40.40625 64.75 
Q 35.890625 66.21875 31.296875 66.21875 
Q 24.3125 66.21875 20.265625 62.96875 
Q 16.21875 59.71875 16.21875 54.203125 
Q 16.21875 49.359375 18.875 46.8125 
Q 21.53125 44.28125 28.8125 42.578125 
L 33.984375 41.40625 
Q 44.234375 39.015625 48.921875 33.890625 
Q 53.609375 28.765625 53.609375 19.921875 
Q 53.609375 9.515625 47.15625 4.046875 
Q 40.71875 -1.421875 28.421875 -1.421875 
Q 23.296875 -1.421875 18.109375 -0.3125 
Q 12.9375 0.78125 7.71875 2.984375 
L 7.71875 13.484375 
Q 13.328125 9.90625 18.328125 8.25 
Q 23.34375 6.59375 28.421875 6.59375 
Q 35.890625 6.59375 40.03125 9.9375 
Q 44.1875 13.28125 44.1875 19.28125 
Q 44.1875 24.75 41.328125 27.625 
Q 38.484375 30.515625 31.390625 32.078125 
L 26.125 33.296875 
Q 15.96875 35.59375 11.375 40.234375 
Q 6.78125 44.875 6.78125 52.6875 
Q 6.78125 62.453125 13.34375 68.328125 
Q 19.921875 74.21875 30.8125 74.21875 
Q 35.015625 74.21875 39.640625 73.265625 
Q 44.28125 72.3125 49.421875 70.40625 
z
" id="DejaVuSansMono-53"/>
      <path d="M 41.890625 17.578125 
Q 39.65625 11.859375 36.1875 2.546875 
Q 31.34375 -10.359375 29.6875 -13.1875 
Q 27.4375 -17 24.0625 -18.890625 
Q 20.703125 -20.796875 16.21875 -20.796875 
L 8.984375 -20.796875 
L 8.984375 -13.28125 
L 14.3125 -13.28125 
Q 18.265625 -13.28125 20.5 -10.984375 
Q 22.75 -8.6875 26.21875 0.875 
L 5.078125 54.6875 
L 14.59375 54.6875 
L 30.8125 11.921875 
L 46.78125 54.6875 
L 56.296875 54.6875 
z
" id="DejaVuSansMono-79"/>
      <path d="M 47.515625 52.78125 
L 47.515625 44 
Q 43.65625 46.234375 39.75 47.359375 
Q 35.84375 48.484375 31.78125 48.484375 
Q 25.6875 48.484375 22.671875 46.5 
Q 19.671875 44.53125 19.671875 40.484375 
Q 19.671875 36.8125 21.921875 35 
Q 24.171875 33.203125 33.109375 31.5 
L 36.71875 30.8125 
Q 43.40625 29.546875 46.84375 25.734375 
Q 50.296875 21.921875 50.296875 15.828125 
Q 50.296875 7.71875 44.53125 3.140625 
Q 38.765625 -1.421875 28.515625 -1.421875 
Q 24.46875 -1.421875 20.015625 -0.5625 
Q 15.578125 0.296875 10.40625 2 
L 10.40625 11.28125 
Q 15.4375 8.6875 20.015625 7.390625 
Q 24.609375 6.109375 28.71875 6.109375 
Q 34.671875 6.109375 37.9375 8.515625 
Q 41.21875 10.9375 41.21875 15.28125 
Q 41.21875 21.53125 29.25 23.921875 
L 28.859375 24.03125 
L 25.484375 24.703125 
Q 17.71875 26.21875 14.15625 29.8125 
Q 10.59375 33.40625 10.59375 39.59375 
Q 10.59375 47.46875 15.90625 51.734375 
Q 21.234375 56 31.109375 56 
Q 35.5 56 39.546875 55.1875 
Q 43.609375 54.390625 47.515625 52.78125 
z
" id="DejaVuSansMono-73"/>
      <path d="M 33.015625 49.125 
Q 34.671875 52.640625 37.234375 54.3125 
Q 39.796875 56 43.40625 56 
Q 50 56 52.703125 50.890625 
Q 55.421875 45.796875 55.421875 31.6875 
L 55.421875 0 
L 47.21875 0 
L 47.21875 31.296875 
Q 47.21875 42.875 45.921875 45.671875 
Q 44.625 48.484375 41.21875 48.484375 
Q 37.3125 48.484375 35.859375 45.484375 
Q 34.421875 42.484375 34.421875 31.296875 
L 34.421875 0 
L 26.21875 0 
L 26.21875 31.296875 
Q 26.21875 43.015625 24.828125 45.75 
Q 23.4375 48.484375 19.828125 48.484375 
Q 16.265625 48.484375 14.875 45.484375 
Q 13.484375 42.484375 13.484375 31.296875 
L 13.484375 0 
L 5.328125 0 
L 5.328125 54.6875 
L 13.484375 54.6875 
L 13.484375 50 
Q 15.09375 52.9375 17.5 54.46875 
Q 19.921875 56 23 56 
Q 26.703125 56 29.171875 54.296875 
Q 31.640625 52.59375 33.015625 49.125 
z
" id="DejaVuSansMono-6d"/>
      <path id="DejaVuSansMono-20"/>
      <path d="M 52.390625 2.59375 
Q 48.640625 0.59375 44.671875 -0.40625 
Q 40.71875 -1.421875 36.28125 -1.421875 
Q 22.265625 -1.421875 14.515625 8.484375 
Q 6.78125 18.40625 6.78125 36.375 
Q 6.78125 54.25 14.5625 64.234375 
Q 22.359375 74.21875 36.28125 74.21875 
Q 40.71875 74.21875 44.671875 73.21875 
Q 48.640625 72.21875 52.390625 70.21875 
L 52.390625 60.109375 
Q 48.78125 63.09375 44.625 64.65625 
Q 40.484375 66.21875 36.28125 66.21875 
Q 26.65625 66.21875 21.875 58.796875 
Q 17.09375 51.375 17.09375 36.375 
Q 17.09375 21.4375 21.875 14.015625 
Q 26.65625 6.59375 36.28125 6.59375 
Q 40.578125 6.59375 44.703125 8.15625 
Q 48.828125 9.71875 52.390625 12.703125 
z
" id="DejaVuSansMono-43"/>
      <path d="M 30.078125 48.390625 
Q 23.25 48.390625 19.734375 43.0625 
Q 16.21875 37.75 16.21875 27.296875 
Q 16.21875 16.890625 19.734375 11.546875 
Q 23.25 6.203125 30.078125 6.203125 
Q 36.96875 6.203125 40.484375 11.546875 
Q 44 16.890625 44 27.296875 
Q 44 37.75 40.484375 43.0625 
Q 36.96875 48.390625 30.078125 48.390625 
z
M 30.078125 56 
Q 41.453125 56 47.484375 48.625 
Q 53.515625 41.265625 53.515625 27.296875 
Q 53.515625 13.28125 47.5 5.921875 
Q 41.5 -1.421875 30.078125 -1.421875 
Q 18.703125 -1.421875 12.6875 5.921875 
Q 6.6875 13.28125 6.6875 27.296875 
Q 6.6875 41.265625 12.6875 48.625 
Q 18.703125 56 30.078125 56 
z
" id="DejaVuSansMono-6f"/>
      <path d="M 9.515625 20.703125 
L 9.515625 54.59375 
L 18.5 54.59375 
L 18.5 20.703125 
Q 18.5 13.328125 21.109375 9.859375 
Q 23.734375 6.390625 29.203125 6.390625 
Q 35.546875 6.390625 38.90625 10.859375 
Q 42.28125 15.328125 42.28125 23.6875 
L 42.28125 54.59375 
L 51.3125 54.59375 
L 51.3125 0 
L 42.28125 0 
L 42.28125 8.203125 
Q 39.890625 3.46875 35.765625 1.015625 
Q 31.640625 -1.421875 26.125 -1.421875 
Q 17.71875 -1.421875 13.609375 4.078125 
Q 9.515625 9.578125 9.515625 20.703125 
z
" id="DejaVuSansMono-75"/>
      <path d="M 51.3125 33.890625 
L 51.3125 0 
L 42.28125 0 
L 42.28125 33.890625 
Q 42.28125 41.265625 39.6875 44.71875 
Q 37.109375 48.1875 31.59375 48.1875 
Q 25.296875 48.1875 21.890625 43.71875 
Q 18.5 39.265625 18.5 30.90625 
L 18.5 0 
L 9.515625 0 
L 9.515625 54.6875 
L 18.5 54.6875 
L 18.5 46.484375 
Q 20.90625 51.171875 25 53.578125 
Q 29.109375 56 34.71875 56 
Q 43.0625 56 47.1875 50.5 
Q 51.3125 45.015625 51.3125 33.890625 
z
" id="DejaVuSansMono-6e"/>
     </defs>
     <g transform="translate(84.059375 311.521875)rotate(-90)scale(0.1 -0.1)">
      <use xlink:href="#DejaVuSansMono-53"/>
      <use x="60.205078" xlink:href="#DejaVuSansMono-79"/>
      <use x="120.410156" xlink:href="#DejaVuSansMono-73"/>
      <use x="180.615234" xlink:href="#DejaVuSansMono-74"/>
      <use x="240.820312" xlink:href="#DejaVuSansMono-65"/>
      <use x="301.025391" xlink:href="#DejaVuSansMono-6d"/>
      <use x="361.230469" xlink:href="#DejaVuSansMono-20"/>
      <use x="421.435547" xlink:href="#DejaVuSansMono-43"/>
      <use x="481.640625" xlink:href="#DejaVuSansMono-6f"/>
      <use x="541.845703" xlink:href="#DejaVuSansMono-75"/>
      <use x="602.050781" xlink:href="#DejaVuSansMono-6e"/>
      <use x="662.255859" xlink:href="#DejaVuSansMono-74"/>
     </g>
    </g>
   </g>
   <g id="patch_3">
    <path d="M 115.2 518.4 
L 115.2 32.4 
" style="fill:none;stroke:#000000;stroke-linecap:square;stroke-linejoin:miter;stroke-width:0.8;"/>
   </g>
   <g id="patch_4">
    <path d="M 1036.8 518.4 
L 1036.8 32.4 
" style="fill:none;stroke:#000000;stroke-linecap:square;stroke-linejoin:miter;stroke-width:0.8;"/>
   </g>
   <g id="patch_5">
    <path d="M 115.2 518.4 
L 1036.8 518.4 
" style="fill:none;stroke:#000000;stroke-linecap:square;stroke-linejoin:miter;stroke-width:0.8;"/>
   </g>
   <g id="patch_6">
    <path d="M 115.2 32.4 
L 1036.8 32.4 
" style="fill:none;stroke:#000000;stroke-linecap:square;stroke-linejoin:miter;stroke-width:0.8;"/>
   </g>
  </g>
 </g>
 <defs>
  <clipPath id="p4b91ae7445">
   <rect height="486" width="921.6" x="115.2" y="32.4"/>
  </clipPath>
 </defs>
</svg>
